<?xml version="1.0" encoding="UTF-8"?>
<!-- Generator: visioncortex VTracer 0.6.3 -->
<svg xmlns="http://www.w3.org/2000/svg" version="1.1" width="300" height="300">
<path d="M0 0 C99 0 198 0 300 0 C300 99 300 198 300 300 C201 300 102 300 0 300 C0 201 0 102 0 0 Z M87 22 C87 55.99 87 89.98 87 125 C95.94 116.06 103.82 106.26 111.69 96.38 C115.34 91.79 119.07 87.27 122.81 82.75 C127.18 77.47 131.48 72.16 135.69 66.75 C139.63 61.69 143.7 56.77 147.88 51.89 C151.19 48.01 154.37 44.03 157.5 40 C161.11 35.35 164.81 30.79 168.62 26.31 C169.3 25.52 169.3 25.52 169.99 24.71 C170.88 23.66 171.78 22.61 172.67 21.56 C174.86 18.99 177.03 16.41 179.19 13.81 C179.92 12.93 180.66 12.05 181.42 11.14 C183.2 9.18 183.2 9.18 183 7 C148.94 0.91 117.6 6.7 87 22 Z M45.25 35.69 C44.64 36.12 44.03 36.56 43.41 37.01 C41.59 38.32 39.78 39.63 38 41 C36.99 41.68 35.97 42.36 34.93 43.05 C32.12 45.43 32 46 31.22 49.91 C31.18 51.47 31.16 53.04 31.18 54.61 C31.16 55.47 31.15 56.34 31.13 57.23 C31.08 60.13 31.08 63.03 31.08 65.93 C31.06 68.01 31.03 70.09 31.01 72.17 C30.94 77.82 30.91 83.47 30.9 89.12 C30.89 92.66 30.87 96.19 30.85 99.72 C30.77 112.06 30.73 124.39 30.72 136.72 C30.71 148.21 30.62 159.69 30.5 171.17 C30.39 181.04 30.35 190.9 30.34 200.77 C30.34 206.66 30.32 212.55 30.23 218.44 C30.15 223.98 30.15 229.52 30.19 235.07 C30.2 237.1 30.18 239.13 30.13 241.16 C29.66 251.59 29.66 251.59 33.45 260.98 C39.33 267.07 46.71 270.84 54 275 C54 194.48 54 113.96 54 31 C50.53 31 47.97 33.7 45.25 35.69 Z M216 35 C209.95 42 203.92 49 198.18 56.26 C195.38 59.78 192.53 63.26 189.69 66.75 C185.53 71.85 181.42 76.99 177.38 82.19 C173.34 87.36 169.17 92.4 164.91 97.39 C161.6 101.27 158.39 105.21 155.23 109.2 C152.89 112.13 150.53 115.04 148.16 117.94 C146.47 120.03 144.78 122.12 143.09 124.21 C141.27 126.46 139.43 128.66 137.54 130.85 C136.89 131.62 136.23 132.39 135.56 133.19 C135.01 133.82 134.45 134.45 133.88 135.11 C132.76 137.01 132.76 137.01 133.5 139.25 C135.52 142.96 137.9 146.33 140.38 149.75 C141.47 151.28 142.56 152.81 143.66 154.34 C144.49 155.51 144.49 155.51 145.35 156.69 C147.88 160.22 150.38 163.77 152.88 167.31 C153.36 168.01 153.85 168.7 154.36 169.41 C158.85 175.78 163.32 182.16 167.78 188.55 C173.01 196.02 178.27 203.48 183.53 210.92 C186.02 214.45 188.51 217.97 191 221.5 C192 222.92 193 224.33 194 225.75 C200 234.25 200 234.25 201.5 236.38 C202.49 237.78 203.49 239.19 204.48 240.59 C207.12 244.32 209.74 248.07 212.32 251.85 C212.86 252.64 213.4 253.43 213.96 254.24 C215.01 255.76 216.05 257.29 217.08 258.82 C218.31 260.6 219.65 262.31 221 264 C225.06 264 226.69 261.96 229.5 259.31 C230.29 258.57 230.29 258.57 231.1 257.81 C251.88 238 264.99 212.66 272 185 C272.34 183.73 272.68 182.46 273.03 181.16 C278.11 158.38 276.53 132.23 270 110 C269.68 108.9 269.68 108.9 269.35 107.78 C264.39 91.58 255.77 75.04 245 62 C244.57 61.46 244.13 60.93 243.69 60.37 C231.85 45.04 231.85 45.04 216 35 Z M112 183 C106.04 189.11 100.55 195.65 95.2 202.3 C93 205 93 205 91.49 206.23 C88.4 209.02 87.13 211.18 86.47 215.33 C86.31 219.57 86.32 223.76 86.41 228 C86.43 229.56 86.43 231.11 86.44 232.67 C86.46 236.76 86.52 240.84 86.59 244.93 C86.65 249.11 86.68 253.28 86.71 257.46 C86.77 265.64 86.87 273.82 87 282 C89.22 283.12 91.44 284.24 93.67 285.36 C94.6 285.84 94.6 285.84 95.56 286.32 C103.6 290.36 111.65 293.03 120.38 295.12 C121.03 295.28 121.69 295.44 122.37 295.61 C133.47 298.15 144.36 299.36 155.75 299.31 C156.96 299.31 158.18 299.31 159.42 299.31 C168.88 299.21 177.82 298.2 187 296 C183.81 290.07 180.39 284.4 176.6 278.82 C175.54 277.24 174.47 275.66 173.41 274.08 C172.86 273.25 172.3 272.43 171.73 271.58 C168.74 267.12 165.79 262.63 162.84 258.14 C162.23 257.22 161.62 256.29 160.99 255.34 C159.12 252.5 157.25 249.65 155.38 246.81 C148.05 235.68 140.72 224.56 133.32 213.48 C131.32 210.48 129.33 207.47 127.33 204.46 C125.76 202.09 124.19 199.71 122.61 197.33 C121.81 196.13 121.01 194.92 120.22 193.71 C119.04 191.93 117.86 190.16 116.68 188.38 C116 187.34 115.31 186.31 114.61 185.24 C114.08 184.5 113.55 183.76 113 183 C112.67 183 112.34 183 112 183 Z " fill="none" transform="translate(0,0)"/>
<path d="M0 0 C5.39 1.52 8.81 5.16 12.75 8.94 C13.46 9.62 14.18 10.29 14.91 10.99 C20.43 16.32 25.47 21.79 30 28 C30.78 29.06 31.57 30.11 32.38 31.2 C42.49 45.32 51.03 62.06 55 79 C55.18 79.64 55.35 80.27 55.53 80.93 C65.8 118.14 57.87 158.55 39.46 191.76 C36.37 197.18 32.95 202.17 29 207 C28.55 207.55 28.11 208.1 27.65 208.67 C21.29 216.46 14.73 223.54 7 230 C2.43 225.79 -0.94 221.05 -4.44 215.94 C-5.68 214.14 -6.93 212.34 -8.18 210.54 C-8.81 209.62 -9.44 208.7 -10.1 207.75 C-13.09 203.43 -16.11 199.12 -19.12 194.81 C-20 193.57 -20 193.57 -20.88 192.3 C-26.08 184.88 -31.3 177.47 -36.53 170.08 C-39.53 165.84 -42.51 161.6 -45.5 157.37 C-47.98 153.86 -50.45 150.36 -52.93 146.86 C-67.92 125.64 -67.92 125.64 -74.3 116.41 C-75.51 114.7 -76.76 113.01 -78.04 111.35 C-78.7 110.48 -79.36 109.61 -80.04 108.71 C-80.96 107.54 -80.96 107.54 -81.9 106.34 C-83 104 -83 104 -82.34 101.41 C-81.17 99.3 -80.05 97.59 -78.46 95.8 C-77.97 95.24 -77.47 94.67 -76.97 94.09 C-76.44 93.5 -75.92 92.92 -75.38 92.31 C-74.28 91.06 -73.18 89.8 -72.08 88.54 C-71.55 87.93 -71.02 87.32 -70.47 86.7 C-67.95 83.78 -65.56 80.76 -63.17 77.73 C-60.41 74.26 -57.61 70.82 -54.81 67.38 C-54.26 66.69 -53.7 66.01 -53.13 65.31 C-51.99 63.9 -50.85 62.5 -49.71 61.1 C-46.43 57.07 -43.15 53.04 -39.88 49.01 C-37.15 45.64 -34.42 42.28 -31.68 38.93 C-26.52 32.6 -21.39 26.25 -16.38 19.81 C-11.1 13.05 -5.59 6.51 0 0 Z " fill="#000" transform="translate(216,35)"/>
<path d="M0 0 C2.8 2.66 5.01 5.29 7.09 8.53 C7.69 9.47 8.3 10.4 8.92 11.36 C9.59 12.4 10.25 13.43 10.94 14.5 C12.45 16.83 13.96 19.16 15.47 21.49 C15.89 22.13 16.3 22.78 16.73 23.44 C22.45 32.25 28.23 41 34.01 49.77 C35.9 52.63 37.78 55.49 39.67 58.35 C45.29 66.87 50.91 75.38 56.58 83.87 C60.47 89.7 64.3 95.56 68.12 101.44 C68.8 102.47 69.47 103.5 70.16 104.56 C71.77 107.04 73.39 109.52 75 112 C56.49 122.57 24.04 116.52 4.49 111.33 C-3.51 109.06 -10.85 106.14 -18.28 102.38 C-18.93 102.06 -19.58 101.73 -20.24 101.4 C-21.83 100.6 -23.41 99.8 -25 99 C-25.21 90.06 -25.37 81.13 -25.47 72.19 C-25.51 68.04 -25.58 63.89 -25.68 59.74 C-25.78 55.72 -25.83 51.71 -25.85 47.7 C-25.87 46.17 -25.9 44.65 -25.95 43.13 C-26.2 35.13 -25.9 29.17 -20.66 22.71 C-19.13 21.11 -17.59 19.54 -16 18 C-14.87 16.76 -13.75 15.51 -12.64 14.26 C-11.66 13.21 -10.67 12.17 -9.69 11.12 C-6.3 7.53 -3.03 3.9 0 0 Z " fill="#000" transform="translate(112,183)"/>
<path d="M0 0 C1.75 -0.01 1.75 -0.01 3.54 -0.02 C11.53 -0.01 19.15 0.82 27 2.25 C25.68 5.09 24.21 7.4 22.2 9.8 C21.36 10.8 21.36 10.8 20.51 11.83 C19.91 12.55 19.31 13.26 18.69 14 C17.41 15.53 16.13 17.07 14.86 18.61 C14.21 19.38 13.57 20.16 12.9 20.96 C10.05 24.39 7.24 27.85 4.44 31.31 C3.91 31.96 3.38 32.62 2.84 33.29 C1.77 34.61 0.7 35.92 -0.37 37.24 C-3.16 40.69 -5.96 44.12 -8.75 47.56 C-9.3 48.24 -9.84 48.91 -10.41 49.6 C-14.14 54.2 -17.89 58.78 -21.64 63.36 C-26.21 68.95 -30.76 74.56 -35.31 80.17 C-38.57 84.19 -41.84 88.21 -45.11 92.23 C-47.92 95.68 -50.72 99.14 -53.53 102.6 C-54.11 103.32 -54.69 104.03 -55.29 104.77 C-56.39 106.13 -57.5 107.49 -58.6 108.85 C-60.06 110.65 -61.53 112.45 -63 114.25 C-63.48 114.84 -63.96 115.43 -64.45 116.04 C-65.61 117.46 -66.8 118.86 -68 120.25 C-68.33 120.25 -68.66 120.25 -69 120.25 C-69 86.26 -69 52.27 -69 17.25 C-57.64 11.57 -47.73 7.04 -35.62 4.12 C-34.97 3.97 -34.31 3.81 -33.63 3.64 C-22.42 1.08 -11.49 -0.08 0 0 Z " fill="#000" transform="translate(156,4.75)"/>
<path d="M0 0 C0 80.52 0 161.04 0 244 C-3.63 241.69 -7.26 239.38 -11 237 C-12.13 236.36 -13.26 235.72 -14.43 235.06 C-18.13 232.67 -21.25 230.4 -22.62 226.03 C-23.71 219.94 -23.53 213.77 -23.47 207.6 C-23.49 205.52 -23.52 203.44 -23.54 201.35 C-23.61 195.72 -23.6 190.08 -23.58 184.44 C-23.56 179.72 -23.58 175.01 -23.6 170.3 C-23.65 159.17 -23.64 148.05 -23.6 136.92 C-23.55 125.46 -23.6 114 -23.69 102.54 C-23.77 92.68 -23.79 82.83 -23.76 72.97 C-23.75 67.09 -23.76 61.21 -23.82 55.33 C-23.87 49.8 -23.85 44.27 -23.78 38.74 C-23.77 36.72 -23.78 34.69 -23.82 32.67 C-24.06 17.84 -24.06 17.84 -20.64 13.12 C-17.41 9.82 -13.77 7.32 -9.77 5.03 C-8.01 4 -6.35 2.89 -4.67 1.72 C-2 0 -2 0 0 0 Z " fill="#000" transform="translate(54,31)"/>
</svg>
